<?xml version="1.0" encoding="utf-8"?>
<!-- Generator: Adobe Illustrator 16.0.0, SVG Export Plug-In . SVG Version: 6.00 Build 0)  -->
<svg version="1.2" baseProfile="tiny" id="Layer_1" xmlns="http://www.w3.org/2000/svg" xmlns:xlink="http://www.w3.org/1999/xlink"
	 x="0px" y="0px" width="256px" height="256px" viewBox="0 0 256 256" xml:space="preserve">
<g>
	<path fill="#6762AC" d="M154.271,105.541l-39.961-3.898l11.695,36.063l-37.037-3.411l1.949,38.499l-34.112,6.822
		c0,0-14.808,42.349-18.519,42.398c-2.681,0.035-3.899-28.753-5.361-38.013c-1.462-9.259-22.723-58.433-23.392-76.511
		C8.315,74.595,40.479,27.812,85.558,32.929c57.304,6.505,68.714,44.348,68.714,44.348V105.541z M67.48,96.038
		c0.156-1.957-0.192-3.644-1.042-5.061c-0.315-0.528-0.438-0.855-0.367-0.98c-0.031,0.054,0.491-0.102,1.563-0.464
		c1.222-0.419,2.3-0.919,3.236-1.5c1.306-0.82,2.253-1.757,2.845-2.813c2.264-4.041,2.486-7.688,0.666-10.94
		c-1.381-2.442-4.227-4.977-8.536-7.601c-0.946-0.577-4.271-2.464-9.977-5.659c-3.56-1.994-5.65-3.118-6.271-3.372
		s-1.018-0.206-1.19,0.144l-0.184,0.391c-1.5,3.014-2.634,5.269-3.402,6.766c-2.991,5.843-5.068,9.802-6.23,11.877
		c-1.082,1.932-2.821,4.775-5.219,8.531c-2.398,3.756-4.133,6.59-5.204,8.504c-0.251,0.448-0.147,0.869,0.312,1.268
		c1.101,0.97,4.952,3.303,11.552,6.999c0.411,0.23,1.046,0.586,1.905,1.067c0.831,0.488,1.469,0.858,1.916,1.108
		c5.884,3.297,10.694,4.357,14.43,3.185c3.269-1.013,5.825-3.164,7.669-6.455C66.833,99.458,67.343,97.793,67.48,96.038z
		 M51.58,96.929c-0.958-0.137-2.402-0.745-4.333-1.828c-2.343-1.313-3.569-2.146-3.676-2.499c-0.107-0.354,0.43-1.586,1.612-3.696
		c1.132-2.021,1.844-3.062,2.136-3.121c0.292-0.06,1.591,0.557,3.898,1.849c1.932,1.083,3.227,2.043,3.885,2.881
		c1.021,1.324,1.08,2.791,0.179,4.4C54.409,96.47,53.174,97.142,51.58,96.929z M55.26,79.535c-2.075-1.161-3.166-1.879-3.272-2.149
		c-0.183-0.385,0.226-1.472,1.228-3.261c0.19-0.34,0.509-0.836,0.958-1.49c0.448-0.652,0.768-1.149,0.958-1.489
		c0.16-0.286,1.206,0.111,3.138,1.193c1.967,1.102,3.305,2.027,4.013,2.777c1.257,1.361,1.456,2.813,0.594,4.351
		C61.644,81.667,59.105,81.689,55.26,79.535z M107.773,98.729c0.434-1.236,0.744-2.063,0.929-2.476
		c0.79-1.578,1.4-2.751,1.832-3.521c0.303-0.794,0.008-1.44-0.887-1.941c-1.43-0.802-3.641-1.899-6.632-3.292
		c-2.991-1.394-5.201-2.491-6.632-3.293c-1.342-0.751-3.334-1.903-5.978-3.454c-2.644-1.551-4.628-2.697-5.951-3.439
		c-0.554-0.31-0.948-0.236-1.18,0.221l-0.154,0.337c-0.212,0.421-1.705,3.485-4.479,9.192c-1.789,3.697-3.344,6.727-4.667,9.087
		c-1.112,1.985-2.849,4.93-5.212,8.834c-2.363,3.905-4.101,6.849-5.213,8.834c-0.24,0.43-0.137,0.853,0.312,1.269
		c0.836,0.772,2.926,2.097,6.27,3.971c1.896,1.062,2.687,1.516,2.373,1.363c1.167,0.559,1.88,0.607,2.141,0.143
		c-0.18,0.321,0.476-1.061,1.971-4.147c1.639-3.43,3.168-6.414,4.592-8.953c0.35-0.626,1.022-0.756,2.015-0.388
		c0.17,0.072,0.881,0.459,2.134,1.16c3.881,2.174,6.728,3.887,8.542,5.138c1.289,0.886,1.817,1.265,1.585,1.134
		c0.358,0.201,0.689,0.175,0.996-0.076c0.446-0.338,1.436-1.874,2.97-4.61c1.763-3.148,2.35-4.888,1.759-5.218
		c-1.234-0.691-3.118-1.658-5.652-2.901c-2.536-1.244-4.419-2.212-5.653-2.902c-0.734-0.411-1.254-0.761-1.562-1.051
		c-0.728-0.714-0.617-1.92,0.335-3.619c0.791-1.412,1.603-2.086,2.435-2.02c0.356,0.035,1.394,0.534,3.11,1.495
		c1.359,0.762,3.337,2.022,5.934,3.783c2.597,1.76,4.567,3.016,5.908,3.768c0.357,0.199,0.591,0.202,0.701,0.005
		C107.064,100.624,107.401,99.813,107.773,98.729z"/>
	<path fill="#83C77C" d="M160.119,81.174c0,0,82.24-4.737,86.258,58.967c3.412,54.095-64.825,73.101-93.578,73.101
		c-11.706,0-43.362-0.975-58.47,0s-49.547,13.646-48.246,9.32c2.437-8.103,15.309-38.269,15.309-38.269l35.618-7.602l-2.924-36.063
		l39.474,3.899l-11.209-37.037l36.306,3.898L160.119,81.174z M183.321,146.364c0.434-1.237,0.743-2.063,0.928-2.476
		c0.789-1.578,1.4-2.752,1.831-3.521c0.303-0.793,0.008-1.44-0.886-1.941c-1.431-0.801-3.642-1.898-6.633-3.292
		s-5.202-2.491-6.632-3.292c-1.342-0.751-3.334-1.903-5.978-3.454c-2.645-1.552-4.628-2.698-5.952-3.439
		c-0.553-0.31-0.947-0.237-1.18,0.221l-0.154,0.336c-0.212,0.422-1.705,3.486-4.48,9.192c-1.788,3.697-3.345,6.726-4.667,9.088
		c-1.112,1.983-2.85,4.93-5.213,8.834c-2.363,3.905-4.101,6.849-5.213,8.834c-0.241,0.43-0.137,0.852,0.312,1.268
		c0.836,0.773,2.926,2.097,6.271,3.971c1.896,1.062,2.687,1.517,2.372,1.364c1.167,0.56,1.882,0.606,2.141,0.142
		c-0.18,0.322,0.478-1.06,1.971-4.146c1.639-3.43,3.169-6.415,4.592-8.954c0.351-0.626,1.022-0.755,2.015-0.387
		c0.169,0.072,0.881,0.459,2.133,1.16c3.881,2.174,6.729,3.886,8.542,5.137c1.289,0.887,1.817,1.265,1.585,1.135
		c0.357,0.2,0.689,0.175,0.995-0.077c0.447-0.337,1.438-1.873,2.97-4.609c1.763-3.148,2.35-4.888,1.76-5.218
		c-1.234-0.691-3.12-1.659-5.653-2.902c-2.534-1.244-4.418-2.211-5.652-2.902c-0.734-0.41-1.254-0.76-1.561-1.051
		c-0.729-0.713-0.617-1.919,0.335-3.618c0.791-1.413,1.602-2.086,2.436-2.021c0.354,0.036,1.393,0.534,3.11,1.497
		c1.358,0.76,3.336,2.021,5.934,3.782c2.597,1.76,4.567,3.015,5.909,3.767c0.357,0.2,0.59,0.203,0.702,0.006
		C182.611,148.258,182.947,147.448,183.321,146.364z M197.151,162.131c-0.05-2.555-0.218-3.911-0.504-4.071
		c-2.772-1.554-5.84-2.18-9.205-1.878c-3.77,0.354-6.407,1.874-7.909,4.557c-0.802,1.431-1.107,3.045-0.917,4.844
		c0.011,0.147,0.325,1.58,0.941,4.298c0.331,1.549,0.275,2.717-0.165,3.503c-0.641,1.146-1.89,1.526-3.744,1.146
		c-1.4-0.479-2.792-0.953-4.173-1.422c-0.217-0.074-0.371-0.031-0.461,0.13c-0.24,0.43-0.283,1.963-0.126,4.599
		c0.156,2.638,0.413,4.056,0.771,4.256c1.609,0.902,3.601,1.478,5.977,1.727c2.211,0.205,4.299,0.105,6.264-0.297
		c0.916-0.169,1.895-0.701,2.938-1.597c0.928-0.819,1.649-1.685,2.16-2.597c0.872-1.558,1.231-3.27,1.081-5.141
		c-0.041-0.681-0.345-2.131-0.91-4.351c-0.371-1.478-0.382-2.528-0.031-3.154c0.55-0.983,1.406-1.504,2.565-1.56
		c0.975-0.063,1.991,0.199,3.047,0.79c0.5,0.281,0.965,0.625,1.396,1.029c0.438-0.153,0.708-0.319,0.808-0.499
		C197.136,166.122,197.202,164.685,197.151,162.131z"/>
</g>
</svg>
